<?xml version="1.0" standalone="no"?><svg xmlns="http://www.w3.org/2000/svg" viewBox="0 0 1440 320"><path fill="#282c34" fill-opacity="1" d="M0,160L16,138.7C32,117,64,75,96,90.7C128,107,160,181,192,181.3C224,181,256,107,288,85.3C320,64,352,96,384,144C416,192,448,256,480,240C512,224,544,128,576,112C608,96,640,160,672,154.7C704,149,736,75,768,69.3C800,64,832,128,864,170.7C896,213,928,235,960,218.7C992,203,1024,149,1056,106.7C1088,64,1120,32,1152,42.7C1184,53,1216,107,1248,112C1280,117,1312,75,1344,58.7C1376,43,1408,53,1424,58.7L1440,64L1440,320L1424,320C1408,320,1376,320,1344,320C1312,320,1280,320,1248,320C1216,320,1184,320,1152,320C1120,320,1088,320,1056,320C1024,320,992,320,960,320C928,320,896,320,864,320C832,320,800,320,768,320C736,320,704,320,672,320C640,320,608,320,576,320C544,320,512,320,480,320C448,320,416,320,384,320C352,320,320,320,288,320C256,320,224,320,192,320C160,320,128,320,96,320C64,320,32,320,16,320L0,320Z"></path></svg>